<svg width="107" height="24" viewBox="0 0 107 24" fill="none" xmlns="http://www.w3.org/2000/svg">
<path d="M31.0036 16L34.1886 12.2235C33.933 12.3838 33.6166 12.464 33.2396 12.464C32.7976 12.464 32.3708 12.3752 31.9591 12.1975C31.5475 12.0155 31.1791 11.7598 30.8541 11.4305C30.5291 11.1012 30.2713 10.7112 30.0806 10.2605C29.89 9.8055 29.7946 9.305 29.7946 8.759C29.7946 8.07433 29.9506 7.45467 30.2626 6.9C30.5746 6.341 31.0231 5.89683 31.6081 5.5675C32.1931 5.23383 32.8973 5.067 33.7206 5.067C34.557 5.067 35.2871 5.23817 35.9111 5.5805C36.5351 5.92283 37.0205 6.38217 37.3671 6.9585C37.7138 7.5305 37.8893 8.1675 37.8936 8.8695C37.8936 9.28983 37.859 9.669 37.7896 10.007C37.7203 10.345 37.6141 10.6613 37.4711 10.956C37.3325 11.2507 37.1613 11.5388 36.9576 11.8205C36.7583 12.1022 36.5308 12.3968 36.2751 12.7045L33.5516 16H31.0036ZM33.8246 10.644C34.089 10.644 34.3338 10.5963 34.5591 10.501C34.7888 10.4013 34.9881 10.2648 35.1571 10.0915C35.3261 9.91383 35.4583 9.708 35.5536 9.474C35.6533 9.24 35.7031 8.98867 35.7031 8.72C35.7031 8.356 35.6208 8.031 35.4561 7.745C35.2958 7.459 35.0748 7.23583 34.7931 7.0755C34.5115 6.91517 34.1886 6.835 33.8246 6.835C33.4563 6.835 33.127 6.91733 32.8366 7.082C32.5506 7.24233 32.3231 7.4655 32.1541 7.7515C31.9895 8.03317 31.9071 8.356 31.9071 8.72C31.9071 9.084 31.9895 9.41117 32.1541 9.7015C32.3231 9.99183 32.5528 10.2215 32.8431 10.3905C33.1335 10.5595 33.4606 10.644 33.8246 10.644ZM43.5701 16.208C42.6947 16.208 41.9256 15.974 41.2626 15.506C40.5996 15.038 40.0817 14.3858 39.7091 13.5495C39.3407 12.7132 39.1566 11.7447 39.1566 10.644C39.1566 9.539 39.3407 8.5705 39.7091 7.7385C40.0817 6.90217 40.5996 6.25 41.2626 5.782C41.9256 5.314 42.6947 5.08 43.5701 5.08C44.4454 5.08 45.2124 5.314 45.8711 5.782C46.5341 6.25 47.0497 6.90217 47.4181 7.7385C47.7907 8.5705 47.9771 9.539 47.9771 10.644C47.9771 11.7447 47.7907 12.7132 47.4181 13.5495C47.0497 14.3858 46.5341 15.038 45.8711 15.506C45.2124 15.974 44.4454 16.208 43.5701 16.208ZM43.5701 14.3555C44.0207 14.3555 44.4086 14.206 44.7336 13.907C45.0586 13.608 45.3099 13.1812 45.4876 12.6265C45.6652 12.0675 45.7541 11.4067 45.7541 10.644C45.7541 9.877 45.6652 9.21617 45.4876 8.6615C45.3099 8.10683 45.0586 7.68 44.7336 7.381C44.4086 7.082 44.0207 6.9325 43.5701 6.9325C43.1194 6.9325 42.7294 7.082 42.4001 7.381C42.0751 7.68 41.8237 8.10683 41.6461 8.6615C41.4684 9.21617 41.3796 9.877 41.3796 10.644C41.3796 11.4067 41.4684 12.0675 41.6461 12.6265C41.8237 13.1812 42.0751 13.608 42.4001 13.907C42.7294 14.206 43.1194 14.3555 43.5701 14.3555Z" fill="white"/>
<path d="M102.28 16.208C101.639 16.208 101.052 16.0975 100.519 15.8765C99.9856 15.6555 99.535 15.3457 99.1666 14.947C98.7983 14.5483 98.5405 14.0782 98.3931 13.5365L100.343 12.6135C100.373 12.9602 100.469 13.2678 100.629 13.5365C100.794 13.8008 101.017 14.0088 101.299 14.1605C101.585 14.3078 101.914 14.3815 102.287 14.3815C102.807 14.3815 103.22 14.2385 103.528 13.9525C103.84 13.6665 103.996 13.2873 103.996 12.815C103.996 12.477 103.92 12.1758 103.769 11.9115C103.617 11.6428 103.411 11.4327 103.151 11.281C102.895 11.125 102.609 11.047 102.293 11.047C102.111 11.047 101.955 11.073 101.825 11.125V9.721H102.313C102.594 9.721 102.848 9.65167 103.073 9.513C103.303 9.37 103.485 9.1815 103.619 8.9475C103.758 8.7135 103.827 8.46217 103.827 8.1935C103.827 7.92917 103.758 7.69083 103.619 7.4785C103.485 7.26617 103.303 7.09717 103.073 6.9715C102.843 6.84583 102.586 6.783 102.3 6.783C102.014 6.783 101.747 6.848 101.5 6.978C101.257 7.108 101.056 7.28567 100.896 7.511C100.735 7.73633 100.633 7.99633 100.59 8.291L98.9196 7.511C99.041 7.02567 99.2641 6.601 99.5891 6.237C99.9141 5.86867 100.313 5.58483 100.785 5.3855C101.262 5.18183 101.78 5.08 102.339 5.08C102.993 5.08 103.576 5.21433 104.087 5.483C104.603 5.75167 105.008 6.11783 105.303 6.5815C105.597 7.04083 105.745 7.56517 105.745 8.1545C105.745 8.45783 105.699 8.74167 105.608 9.006C105.521 9.27033 105.396 9.51083 105.231 9.7275C105.066 9.94417 104.867 10.1305 104.633 10.2865C104.936 10.4468 105.199 10.6505 105.42 10.8975C105.641 11.1445 105.81 11.4283 105.927 11.749C106.044 12.0653 106.102 12.4185 106.102 12.8085C106.102 13.4585 105.942 14.0413 105.621 14.557C105.3 15.0683 104.852 15.4713 104.276 15.766C103.704 16.0607 103.038 16.208 102.28 16.208Z" fill="white"/>
<path d="M11.293 5.55005L12 6.25805L12.707 5.55105C13.1705 5.08342 13.7219 4.71195 14.3294 4.45798C14.9369 4.204 15.5886 4.07252 16.247 4.07108C16.9055 4.06963 17.5577 4.19826 18.1663 4.44957C18.7749 4.70089 19.3279 5.06994 19.7935 5.53553C20.2591 6.00113 20.6282 6.5541 20.8795 7.16271C21.1308 7.77131 21.2594 8.42356 21.258 9.08201C21.2565 9.74046 21.125 10.3921 20.8711 10.9996C20.6171 11.6071 20.2456 12.1585 19.778 12.622L12.708 19.693C12.6151 19.786 12.5048 19.8598 12.3834 19.9101C12.262 19.9604 12.1319 19.9863 12.0005 19.9863C11.8691 19.9863 11.739 19.9604 11.6176 19.9101C11.4962 19.8598 11.3859 19.786 11.293 19.693L4.222 12.622C3.74801 12.16 3.37048 11.6084 3.11132 10.9993C2.85217 10.3902 2.71653 9.73571 2.71229 9.07378C2.70805 8.41186 2.83529 7.75567 3.08662 7.1433C3.33795 6.53093 3.70837 5.97456 4.1764 5.50646C4.64443 5.03837 5.20075 4.66786 5.81309 4.41645C6.42542 4.16503 7.08159 4.0377 7.74352 4.04185C8.40545 4.04599 9.05996 4.18153 9.6691 4.44061C10.2782 4.69968 10.8299 5.07712 11.292 5.55105L11.293 5.55005Z" fill="white"/>
<path d="M82.01 17.959C81.824 17.977 80.384 19.235 77.689 21.733C77.5458 21.8658 77.3668 21.9538 77.1742 21.9861C76.9815 22.0184 76.7836 21.9935 76.6049 21.9146C76.4263 21.8357 76.2746 21.7061 76.1687 21.542C76.0628 21.3779 76.0073 21.1863 76.009 20.991C76.029 18.629 76.02 17.282 75.985 16.951C75.967 16.778 76.017 16.671 75.985 16.651C73.708 15.212 72 12.775 72 10.005C72 5.584 76.03 2 81 2C85.97 2 90 5.584 90 10.004C90 14.121 86.505 17.513 82.01 17.959Z" fill="white"/>
</svg>
